# xmcd
#
# Track frame offsets:
#	150
#	25950
#	46433
#	75577
#	108767
#	125279
#	144494
#	167966
#	185557
#	205699
#	218582
#	226798
#
# Disc length: 3281 seconds
#
# Revision: 1
# Processed by: cddbd v1.5.2PL0 Copyright (c) Steve Scherf et al.
# Submitted via: audiograbber 1.83.01
#
DISCID=990ccf0c
DTITLE=Joe Bonamassa - No Hits, No Hype, Just The Best
DYEAR=2012
DGENRE=Blues Rock
TTITLE0=Blue And Evil
TTITLE1=Dust Bowl
TTITLE2=The Ballad Of John Henry
TTITLE3=Sloe Gin
TTITLE4=Miss You, Hate You
TTITLE5=Black Lung Heartache
TTITLE6=The Battle For Hadrians Wall
TTITLE7=One Last Soul
TTITLE8=Sinner's Prayer
TTITLE9=Woke Up Dreaming
TTITLE10=Palm Trees, Helicopters And Gasoline
TTITLE11=Asking Around For You
EXTD=
EXTT0=
EXTT1=
EXTT2=
EXTT3=
EXTT4=
EXTT5=
EXTT6=
EXTT7=
EXTT8=
EXTT9=
EXTT10=
EXTT11=
PLAYORDER=
